<svg xmlns="http://www.w3.org/2000/svg" xmlns:xlink="http://www.w3.org/1999/xlink" width="135" zoomAndPan="magnify" viewBox="0 0 101.25 37.5" height="50" preserveAspectRatio="xMidYMid meet" version="1.0"><defs><g/><clipPath id="db00bbad99"><path d="M 51 7 L 93.328125 7 L 93.328125 17 L 51 17 Z M 51 7 " clip-rule="nonzero"/></clipPath><clipPath id="cd9b3d86dc"><path d="M 71 13 L 92 13 L 92 18.371094 L 71 18.371094 Z M 71 13 " clip-rule="nonzero"/></clipPath><clipPath id="5b8d2e6c35"><path d="M 47 17 L 72 17 L 72 18.371094 L 47 18.371094 Z M 47 17 " clip-rule="nonzero"/></clipPath><clipPath id="8b1d08cd98"><path d="M 21 13 L 47 13 L 47 18.371094 L 21 18.371094 Z M 21 13 " clip-rule="nonzero"/></clipPath><clipPath id="9f4b38f99c"><path d="M 7.300781 11 L 34 11 L 34 15 L 7.300781 15 Z M 7.300781 11 " clip-rule="nonzero"/></clipPath></defs><path fill="#ffffff" d="M 72.15625 8.679688 C 57.398438 1.355469 42.597656 4.683594 31.761719 7.933594 C 34.554688 9.160156 42.25 9.894531 52.089844 9.132812 C 35.65625 13.273438 27.996094 8.191406 21.195312 8.65625 C 33.378906 4.695312 57.550781 -2.65625 72.15625 8.679688 Z M 72.15625 8.679688 " fill-opacity="1" fill-rule="nonzero"/><g clip-path="url(#db00bbad99)"><path fill="#ffffff" d="M 51.382812 7.207031 C 58.597656 14.261719 87.316406 2.601562 93.109375 16.304688 C 85.175781 5.429688 56.542969 15.261719 51.382812 7.207031 Z M 51.382812 7.207031 " fill-opacity="1" fill-rule="nonzero"/></g><g clip-path="url(#cd9b3d86dc)"><path fill="#ffffff" d="M 91.382812 18.34375 L 83.394531 18.34375 L 83.292969 18.09375 C 80.941406 13.960938 74.152344 14.574219 71.820312 18.382812 C 73.640625 12.308594 82.226562 12.246094 83.769531 17.230469 Z M 91.382812 18.34375 " fill-opacity="1" fill-rule="nonzero"/></g><g clip-path="url(#5b8d2e6c35)"><path fill="#ffffff" d="M 59.261719 17.363281 C 63.402344 17.363281 67.410156 17.5625 71.21875 17.929688 C 67.410156 18.300781 63.402344 18.5 59.261719 18.5 C 55.125 18.5 51.117188 18.300781 47.308594 17.929688 C 51.117188 17.5625 55.125 17.363281 59.261719 17.363281 Z M 59.261719 17.363281 " fill-opacity="1" fill-rule="evenodd"/></g><g clip-path="url(#8b1d08cd98)"><path fill="#ffffff" d="M 21.492188 18.34375 L 34.699219 18.34375 L 34.796875 18.09375 C 37.148438 13.960938 44.792969 13.820312 46.273438 18.382812 C 46.308594 13.007812 37.753906 11.371094 34.320312 17.230469 Z M 21.492188 18.34375 " fill-opacity="1" fill-rule="nonzero"/></g><path fill="#ffffff" d="M 33.265625 11.644531 C 26.570312 10.605469 21.960938 8.902344 13.800781 10.027344 C 21.175781 9.726562 26.1875 12.554688 33.265625 11.644531 Z M 33.265625 11.644531 " fill-opacity="1" fill-rule="evenodd"/><g clip-path="url(#9f4b38f99c)"><path fill="#ffffff" d="M 33.265625 13.84375 C 24.367188 12.460938 18.234375 10.195312 7.390625 11.695312 C 17.195312 11.296875 23.855469 15.050781 33.265625 13.84375 Z M 33.265625 13.84375 " fill-opacity="1" fill-rule="evenodd"/></g><g fill="#000000" fill-opacity="1"><g transform="translate(8.710343, 34.816311)"><g><path d="M 7.796875 0 L 5.09375 -4.921875 L 4.328125 -4.921875 L 4.328125 0 L 1.15625 0 L 1.15625 -13.046875 L 6.484375 -13.046875 C 7.515625 -13.046875 8.390625 -12.863281 9.109375 -12.5 C 9.835938 -12.144531 10.378906 -11.65625 10.734375 -11.03125 C 11.097656 -10.40625 11.28125 -9.707031 11.28125 -8.9375 C 11.28125 -8.070312 11.035156 -7.296875 10.546875 -6.609375 C 10.054688 -5.929688 9.332031 -5.453125 8.375 -5.171875 L 11.390625 0 Z M 4.328125 -7.171875 L 6.296875 -7.171875 C 6.878906 -7.171875 7.316406 -7.3125 7.609375 -7.59375 C 7.898438 -7.882812 8.046875 -8.289062 8.046875 -8.8125 C 8.046875 -9.300781 7.898438 -9.6875 7.609375 -9.96875 C 7.316406 -10.257812 6.878906 -10.40625 6.296875 -10.40625 L 4.328125 -10.40625 Z M 4.328125 -7.171875 "/></g></g></g><g fill="#000000" fill-opacity="1"><g transform="translate(20.270405, 34.816311)"><g><path d="M 5.875 0.15625 C 4.851562 0.15625 3.9375 -0.0625 3.125 -0.5 C 2.3125 -0.9375 1.671875 -1.554688 1.203125 -2.359375 C 0.742188 -3.160156 0.515625 -4.101562 0.515625 -5.1875 C 0.515625 -6.25 0.75 -7.1875 1.21875 -8 C 1.695312 -8.8125 2.34375 -9.429688 3.15625 -9.859375 C 3.976562 -10.296875 4.894531 -10.515625 5.90625 -10.515625 C 6.925781 -10.515625 7.84375 -10.296875 8.65625 -9.859375 C 9.476562 -9.429688 10.125 -8.8125 10.59375 -8 C 11.0625 -7.1875 11.296875 -6.25 11.296875 -5.1875 C 11.296875 -4.113281 11.054688 -3.171875 10.578125 -2.359375 C 10.097656 -1.554688 9.445312 -0.9375 8.625 -0.5 C 7.800781 -0.0625 6.882812 0.15625 5.875 0.15625 Z M 5.875 -2.59375 C 6.476562 -2.59375 6.992188 -2.816406 7.421875 -3.265625 C 7.847656 -3.710938 8.0625 -4.351562 8.0625 -5.1875 C 8.0625 -6.007812 7.851562 -6.644531 7.4375 -7.09375 C 7.019531 -7.539062 6.507812 -7.765625 5.90625 -7.765625 C 5.289062 -7.765625 4.773438 -7.546875 4.359375 -7.109375 C 3.953125 -6.671875 3.75 -6.03125 3.75 -5.1875 C 3.75 -4.351562 3.945312 -3.710938 4.34375 -3.265625 C 4.75 -2.816406 5.257812 -2.59375 5.875 -2.59375 Z M 5.875 -2.59375 "/></g></g></g><g fill="#000000" fill-opacity="1"><g transform="translate(31.551686, 34.816311)"><g><path d="M 0.515625 -5.203125 C 0.515625 -6.265625 0.71875 -7.195312 1.125 -8 C 1.53125 -8.8125 2.078125 -9.429688 2.765625 -9.859375 C 3.460938 -10.296875 4.238281 -10.515625 5.09375 -10.515625 C 5.820312 -10.515625 6.460938 -10.363281 7.015625 -10.0625 C 7.566406 -9.769531 7.988281 -9.382812 8.28125 -8.90625 L 8.28125 -10.359375 L 11.46875 -10.359375 L 11.46875 0 L 8.28125 0 L 8.28125 -1.46875 C 7.976562 -0.988281 7.550781 -0.597656 7 -0.296875 C 6.445312 0.00390625 5.804688 0.15625 5.078125 0.15625 C 4.234375 0.15625 3.460938 -0.0625 2.765625 -0.5 C 2.078125 -0.945312 1.53125 -1.578125 1.125 -2.390625 C 0.71875 -3.203125 0.515625 -4.140625 0.515625 -5.203125 Z M 8.28125 -5.1875 C 8.28125 -5.976562 8.0625 -6.601562 7.625 -7.0625 C 7.1875 -7.519531 6.648438 -7.75 6.015625 -7.75 C 5.390625 -7.75 4.851562 -7.519531 4.40625 -7.0625 C 3.96875 -6.613281 3.75 -5.992188 3.75 -5.203125 C 3.75 -4.410156 3.96875 -3.78125 4.40625 -3.3125 C 4.851562 -2.851562 5.390625 -2.625 6.015625 -2.625 C 6.648438 -2.625 7.1875 -2.851562 7.625 -3.3125 C 8.0625 -3.769531 8.28125 -4.394531 8.28125 -5.1875 Z M 8.28125 -5.1875 "/></g></g></g><g fill="#000000" fill-opacity="1"><g transform="translate(43.613557, 34.816311)"><g><path d="M 0.515625 -5.203125 C 0.515625 -6.265625 0.71875 -7.195312 1.125 -8 C 1.53125 -8.8125 2.078125 -9.429688 2.765625 -9.859375 C 3.460938 -10.296875 4.238281 -10.515625 5.09375 -10.515625 C 5.769531 -10.515625 6.390625 -10.367188 6.953125 -10.078125 C 7.515625 -9.796875 7.957031 -9.414062 8.28125 -8.9375 L 8.28125 -13.75 L 11.46875 -13.75 L 11.46875 0 L 8.28125 0 L 8.28125 -1.484375 C 7.988281 -0.992188 7.566406 -0.597656 7.015625 -0.296875 C 6.460938 0.00390625 5.820312 0.15625 5.09375 0.15625 C 4.238281 0.15625 3.460938 -0.0625 2.765625 -0.5 C 2.078125 -0.945312 1.53125 -1.578125 1.125 -2.390625 C 0.71875 -3.203125 0.515625 -4.140625 0.515625 -5.203125 Z M 8.28125 -5.1875 C 8.28125 -5.976562 8.0625 -6.601562 7.625 -7.0625 C 7.1875 -7.519531 6.648438 -7.75 6.015625 -7.75 C 5.390625 -7.75 4.851562 -7.519531 4.40625 -7.0625 C 3.96875 -6.613281 3.75 -5.992188 3.75 -5.203125 C 3.75 -4.410156 3.96875 -3.78125 4.40625 -3.3125 C 4.851562 -2.851562 5.390625 -2.625 6.015625 -2.625 C 6.648438 -2.625 7.1875 -2.851562 7.625 -3.3125 C 8.0625 -3.769531 8.28125 -4.394531 8.28125 -5.1875 Z M 8.28125 -5.1875 "/></g></g></g><g fill="#000000" fill-opacity="1"><g transform="translate(55.675427, 34.816311)"><g><path d="M 5.8125 -2.96875 L 8.0625 -10.359375 L 11.4375 -10.359375 L 7.765625 0 L 3.84375 0 L 0.171875 -10.359375 L 3.5625 -10.359375 Z M 5.8125 -2.96875 "/></g></g></g><g fill="#000000" fill-opacity="1"><g transform="translate(66.752268, 34.816311)"><g><path d="M 2.75 -11.4375 C 2.1875 -11.4375 1.726562 -11.597656 1.375 -11.921875 C 1.03125 -12.253906 0.859375 -12.664062 0.859375 -13.15625 C 0.859375 -13.644531 1.03125 -14.050781 1.375 -14.375 C 1.726562 -14.707031 2.1875 -14.875 2.75 -14.875 C 3.289062 -14.875 3.738281 -14.707031 4.09375 -14.375 C 4.445312 -14.050781 4.625 -13.644531 4.625 -13.15625 C 4.625 -12.664062 4.445312 -12.253906 4.09375 -11.921875 C 3.738281 -11.597656 3.289062 -11.4375 2.75 -11.4375 Z M 4.328125 -10.359375 L 4.328125 0 L 1.15625 0 L 1.15625 -10.359375 Z M 4.328125 -10.359375 "/></g></g></g><g fill="#000000" fill-opacity="1"><g transform="translate(71.677336, 34.816311)"><g><path d="M 4.125 -2.625 L 8.625 -2.625 L 8.625 0 L 0.578125 0 L 0.578125 -2.53125 L 4.890625 -7.75 L 0.609375 -7.75 L 0.609375 -10.359375 L 8.53125 -10.359375 L 8.53125 -7.84375 Z M 4.125 -2.625 "/></g></g></g><g fill="#000000" fill-opacity="1"><g transform="translate(80.338076, 34.816311)"><g><path d="M 10.921875 -5.34375 C 10.921875 -5.050781 10.90625 -4.742188 10.875 -4.421875 L 3.671875 -4.421875 C 3.722656 -3.773438 3.929688 -3.28125 4.296875 -2.9375 C 4.660156 -2.601562 5.109375 -2.4375 5.640625 -2.4375 C 6.441406 -2.4375 6.992188 -2.769531 7.296875 -3.4375 L 10.6875 -3.4375 C 10.507812 -2.757812 10.191406 -2.144531 9.734375 -1.59375 C 9.285156 -1.050781 8.71875 -0.625 8.03125 -0.3125 C 7.351562 0 6.597656 0.15625 5.765625 0.15625 C 4.742188 0.15625 3.835938 -0.0625 3.046875 -0.5 C 2.253906 -0.9375 1.632812 -1.554688 1.1875 -2.359375 C 0.738281 -3.160156 0.515625 -4.101562 0.515625 -5.1875 C 0.515625 -6.257812 0.734375 -7.195312 1.171875 -8 C 1.617188 -8.8125 2.238281 -9.429688 3.03125 -9.859375 C 3.820312 -10.296875 4.734375 -10.515625 5.765625 -10.515625 C 6.765625 -10.515625 7.65625 -10.300781 8.4375 -9.875 C 9.21875 -9.457031 9.828125 -8.859375 10.265625 -8.078125 C 10.703125 -7.296875 10.921875 -6.382812 10.921875 -5.34375 Z M 7.671875 -6.1875 C 7.671875 -6.726562 7.484375 -7.160156 7.109375 -7.484375 C 6.742188 -7.804688 6.28125 -7.96875 5.71875 -7.96875 C 5.1875 -7.96875 4.738281 -7.8125 4.375 -7.5 C 4.007812 -7.195312 3.785156 -6.757812 3.703125 -6.1875 Z M 7.671875 -6.1875 "/></g></g></g></svg>